# xmcd
#
# Track frame offsets:
#	150
#	13647
#	24005
#	31682
#	41627
#	52160
#	62875
#	74825
#	93535
#	104475
#	120220
#	139460
#	152477
#	163537
#
# Disc length: 2342
#
# Revision: 3
# Processed by: cddbd v1.5.1PL0 Copyright (c) Steve Scherf et al.
# Submitted via: audiograbber 1.82.02
# Normalized: r2:DSETVAR1
#
DISCID=b909240e
DTITLE=Various Artist - Best of Country (14 Country Greats)
DYEAR=1900
DGENRE=Country
TTITLE0=Alabama - Patches
TTITLE1=Patsy Cline - Pick Me Up On Your Way Down
TTITLE2=Roy Drusky - Hello Walls
TTITLE3=Mickey Gilley - Running Out of Reasons
TTITLE4=Ferlin Husky - Wings of a Dove
TTITLE5=Barbara Mandrell - The Wayward Wind
TTITLE6=Ronnie Milsap - House Of The Rising Sun
TTITLE7=Johnny Paycheck - Sunday Morning Coming Down
TTITLE8=Frankie Laine - Your Cheating Heart
TTITLE9=Lynn Anderson - You Needed Me
TTITLE10=Alabama - I Want To Be With You Tonigh
TTITLE11=Ray Stevens - Oh Lonesome Me
TTITLE12=Roy Drusky - Take These Chains From My Heart
TTITLE13=Faron Young - Four In The Morning
EXTD=
EXTT0=Alabama
EXTT1=Patsy Cline
EXTT2=Roy Drusky
EXTT3=Mickey Gilley
EXTT4=Ferlin Husky
EXTT5=Barbara Mandrell
EXTT6=Ronnie Milsap
EXTT7=Johnny Paycheck
EXTT8=Frankie Laine
EXTT9=Lynn Anderson
EXTT10=Alabama
EXTT11=Ray Stevens
EXTT12=Roy Drusky
EXTT13=Faron Young
PLAYORDER=
